<?xml version="1.0" encoding="UTF-8"?>
<!DOCTYPE svg PUBLIC "-//W3C//DTD SVG 1.0//EN" "http://www.w3.org/TR/2001/REC-SVG-20010904/DTD/svg10.dtd">
<svg width="210mm" height="23mm" viewBox="0 0 21000 2300" xmlns="http://www.w3.org/2000/svg">
 <g style="stroke:none;fill:rgb(0,51,102)">
  <polygon points="181,2300 162,2300 143,2299 126,2292 107,2283 90,2275 75,2262 60,2248 47,2236 34,2220 25,2206 17,2188 11,2171 4,2140 0,2112 0,195 3,176 4,154 11,132 19,111 30,93 40,76 54,63 66,49 82,37 98,26 115,20 133,11 150,7 169,3 186,3 205,3 224,4 244,9 260,13 280,21 301,37 320,52 335,67 350,84 1516,1576 2632,83 2647,67 2662,48 2685,32 2711,20 2737,9 2764,3 2792,3 2820,4 2847,11 2875,21 2892,32 2907,44 2922,56 2935,69 2947,84 2957,100 2965,117 2971,135 2978,156 2980,173 2982,191 2982,212 2980,2108 2980,2134 2975,2155 2969,2175 2963,2195 2953,2212 2942,2230 2929,2244 2916,2258 2901,2268 2884,2279 2867,2288 2850,2294 2832,2299 2813,2303 2796,2303 2777,2303 2758,2300 2738,2299 2721,2292 2702,2283 2685,2275 2670,2262 2655,2251 2642,2236 2630,2220 2619,2206 2611,2188 2604,2171 2598,2143 2594,2110 2594,780 1671,2015 1656,2034 1639,2050 1622,2064 1603,2075 1584,2084 1563,2088 1541,2092 1520,2095 1496,2092 1475,2091 1456,2084 1434,2075 1415,2064 1396,2051 1379,2034 1364,2016 386,761 386,2116 384,2138 380,2158 374,2178 367,2195 352,2220 333,2244 312,2262 288,2279 262,2290 237,2299 209,2303 181,2303"/>
  <polygon points="15174,2300 15156,2300 15138,2299 15119,2292 15102,2283 15083,2275 15068,2262 15053,2248 15040,2236 15030,2220 15019,2206 15010,2188 15004,2171 14998,2140 14993,2112 14993,195 14995,176 14999,154 15006,132 15015,111 15023,93 15034,76 15047,63 15062,49 15077,37 15091,26 15109,20 15125,11 15142,7 15162,3 15181,3 15198,3 15217,4 15236,9 15256,13 15273,21 15294,37 15314,52 15331,67 15343,84 16508,1576 17625,83 17640,67 17657,48 17678,32 17704,20 17729,9 17757,3 17785,3 17812,4 17840,11 17868,21 17886,32 17902,44 17915,56 17930,69 17941,84 17952,100 17960,117 17966,135 17970,156 17973,173 17975,191 17975,212 17975,2108 17973,2134 17969,2155 17962,2175 17956,2195 17945,2212 17934,2230 17922,2244 17909,2258 17894,2268 17879,2279 17862,2288 17845,2294 17826,2299 17808,2303 17789,2303 17770,2303 17751,2300 17734,2299 17715,2292 17696,2283 17678,2275 17664,2262 17649,2251 17636,2236 17623,2220 17614,2206 17606,2188 17599,2171 17591,2143 17589,2110 17589,780 16666,2015 16650,2034 16635,2050 16615,2064 16596,2075 16577,2084 16556,2088 16535,2092 16513,2095 16492,2092 16470,2091 16449,2084 16428,2075 16408,2064 16391,2051 16374,2034 16357,2016 15379,761 15379,2116 15378,2138 15373,2158 15369,2178 15360,2195 15346,2220 15326,2244 15304,2262 15283,2279 15257,2290 15230,2299 15202,2303 15174,2303"/>
  <path d="M 3836,2299 L 3812,2299 3789,2294 3768,2286 3744,2275 3725,2262 3705,2244 3691,2227 3678,2207 3665,2186 3658,2164 3652,2143 3648,2119 3648,2103 3648,2103 3648,841 3650,807 3654,770 3658,733 3668,696 3678,659 3691,623 3705,585 3723,551 3741,514 3763,477 3784,443 3810,408 3836,375 3862,340 3891,310 3921,277 3953,249 3985,219 4020,193 4053,167 4090,141 4128,119 4165,97 4203,78 4244,61 4282,45 4323,32 4365,21 4406,13 4446,7 4489,3 4531,3 5121,0 5163,3 5204,7 5247,13 5287,21 5328,32 5368,45 5409,61 5447,78 5486,97 5524,119 5561,141 5597,167 5633,193 5667,219 5699,249 5731,277 5761,310 5789,340 5817,375 5842,408 5866,443 5889,477 5911,514 5928,551 5944,585 5960,623 5972,659 5983,696 5992,733 5998,770 6002,807 6002,844 6002,2103 6002,2103 6002,2116 6000,2143 5994,2164 5986,2186 5975,2207 5962,2227 5944,2244 5928,2262 5907,2275 5885,2286 5861,2294 5840,2299 5817,2300 5791,2300 5766,2296 5742,2288 5718,2277 5697,2262 5676,2247 5659,2224 5644,2203 5633,2182 5624,2158 5620,2134 5618,2110 5618,2103 5618,2103 5618,1459 4035,1459 4035,2103 4035,2103 4035,2108 4032,2134 4028,2158 4020,2182 4009,2203 3994,2224 3974,2247 3956,2262 3934,2277 3910,2288 3887,2296 3862,2300 3836,2300 Z M 5618,1069 L 5618,841 5618,827 5616,809 5612,792 5605,774 5592,735 5573,699 5550,661 5522,624 5492,588 5458,553 5419,520 5382,492 5340,464 5298,443 5253,423 5210,410 5166,401 5142,397 5121,397 4531,395 4509,397 4487,401 4442,410 4397,423 4355,443 4312,464 4272,492 4230,520 4194,553 4160,588 4130,624 4103,661 4079,699 4060,735 4045,774 4041,792 4036,809 4035,827 4035,844 4035,1069 5618,1069 Z"/>
  <path d="M 18839,2299 L 18816,2299 18793,2294 18769,2286 18748,2275 18727,2262 18709,2244 18692,2227 18680,2207 18669,2186 18660,2164 18654,2143 18652,2119 18652,2103 18652,2103 18652,841 18652,807 18656,770 18663,733 18671,696 18681,659 18695,623 18709,585 18727,551 18746,514 18764,477 18788,443 18811,408 18838,375 18865,340 18893,310 18925,277 18955,249 18989,219 19023,193 19058,167 19094,141 19130,119 19169,97 19206,78 19245,61 19285,45 19327,32 19367,21 19407,13 19450,7 19493,3 19533,3 20125,0 20165,3 20208,7 20248,13 20291,21 20331,32 20372,45 20413,61 20451,78 20489,97 20528,119 20564,141 20600,167 20635,193 20669,219 20701,249 20733,277 20762,310 20793,340 20820,375 20846,408 20869,443 20891,477 20912,514 20931,551 20948,585 20963,623 20976,659 20987,696 20995,733 21002,770 21004,807 21006,844 21006,2103 21006,2103 21006,2116 21002,2143 20998,2164 20989,2186 20978,2207 20963,2227 20948,2244 20930,2262 20910,2275 20889,2286 20865,2294 20841,2299 20818,2300 20793,2300 20767,2296 20744,2288 20720,2277 20699,2262 20679,2247 20662,2224 20647,2203 20635,2182 20628,2158 20622,2134 20620,2110 20622,2103 20620,2103 20620,1459 19036,1459 19036,2103 19036,2103 19036,2108 19034,2134 19030,2158 19021,2182 19011,2203 18996,2224 18979,2247 18959,2262 18938,2277 18914,2288 18889,2296 18865,2300 18839,2300 Z M 20620,1069 L 20620,841 20620,827 20618,809 20614,792 20609,774 20594,735 20577,699 20553,661 20526,624 20494,588 20460,553 20423,520 20383,492 20342,464 20300,443 20257,423 20212,410 20168,401 20146,397 20125,397 19533,395 19512,397 19490,401 19446,410 19401,423 19358,443 19316,464 19273,492 19234,520 19198,553 19164,588 19132,624 19104,661 19080,699 19062,735 19048,774 19043,792 19040,809 19038,827 19036,844 19036,1069 20620,1069 Z"/>
  <polygon points="7642,2299 7618,2299 7595,2294 7571,2286 7550,2275 7531,2262 7511,2247 7496,2227 7481,2207 7471,2188 7463,2164 7456,2143 7454,2119 7454,2103 7454,2103 7454,397 6543,397 6543,397 6536,397 6512,397 6489,391 6468,384 6444,373 6427,363 6412,349 6399,336 6386,321 6376,304 6367,288 6361,271 6355,253 6350,235 6348,215 6348,197 6350,177 6353,159 6357,139 6365,121 6374,104 6386,83 6403,65 6421,48 6440,35 6461,24 6482,15 6504,9 6528,7 6543,4 6543,3 8800,3 8800,4 8816,4 8837,9 8861,15 8882,24 8903,35 8922,48 8940,65 8954,83 8969,104 8978,121 8984,139 8991,159 8993,177 8995,197 8995,215 8993,235 8989,253 8982,271 8976,288 8968,304 8957,321 8944,336 8931,349 8914,363 8899,373 8875,384 8854,391 8831,397 8807,399 8800,397 8800,397 7840,397 7840,2103 7840,2103 7840,2108 7838,2134 7834,2158 7825,2182 7815,2203 7800,2227 7783,2247 7761,2264 7740,2277 7717,2288 7693,2296 7667,2300 7642,2300"/>
  <polygon points="9516,2300 9493,2300 9469,2294 9446,2288 9424,2277 9403,2262 9386,2247 9368,2227 9356,2207 9345,2188 9336,2166 9330,2143 9328,2119 9328,2103 9328,2103 9328,200 9328,200 9328,187 9330,165 9336,141 9345,119 9356,100 9368,80 9386,61 9403,45 9424,32 9446,20 9469,13 9493,7 9516,4 9541,7 9565,11 9590,20 9614,31 9636,44 9655,61 9674,80 9688,104 9699,125 9706,149 9712,173 9715,197 9715,200 9715,200 9715,1067 11113,1067 11113,200 11113,200 11113,187 11117,165 11121,141 11129,119 11140,100 11155,80 11170,61 11189,45 11208,32 11232,20 11253,13 11276,7 11300,4 11326,7 11351,11 11375,20 11398,31 11420,44 11441,61 11458,80 11473,104 11484,125 11492,149 11497,173 11499,197 11499,200 11499,200 11499,2103 11499,2103 11499,2110 11497,2134 11492,2158 11484,2182 11473,2203 11458,2227 11441,2247 11420,2264 11398,2277 11375,2290 11351,2296 11326,2300 11300,2303 11276,2300 11253,2294 11232,2288 11208,2277 11189,2262 11170,2247 11155,2227 11140,2207 11129,2188 11121,2166 11117,2143 11113,2119 11113,2103 11113,2103 11113,1459 9715,1459 9715,2103 9715,2103 9715,2110 9712,2134 9706,2158 9699,2182 9688,2203 9674,2227 9655,2247 9636,2264 9614,2277 9590,2290 9565,2296 9541,2300 9516,2303"/>
  <polygon points="12333,2300 12333,2300 12321,2300 12297,2299 12275,2294 12254,2286 12233,2275 12214,2259 12197,2244 12180,2224 12167,2206 12155,2179 12145,2154 12141,2126 12141,2092 12141,223 12141,197 12144,169 12149,141 12160,115 12176,91 12192,69 12214,48 12238,32 12259,20 12282,13 12306,7 12329,4 12333,4 12333,3 14233,3 14233,4 14237,3 14261,7 14284,13 14308,20 14329,32 14347,44 14361,55 14374,69 14387,83 14398,100 14406,115 14415,132 14419,152 14423,169 14426,189 14426,208 14426,225 14421,245 14416,264 14410,282 14400,299 14387,321 14372,340 14352,356 14333,368 14315,380 14291,388 14269,395 14246,397 14233,397 14233,397 12530,397 12530,1067 13924,1067 13924,1067 13930,1067 13953,1071 13977,1076 13999,1084 14022,1095 14039,1106 14054,1119 14067,1132 14079,1147 14090,1163 14099,1180 14105,1197 14111,1215 14116,1234 14118,1251 14118,1271 14116,1291 14114,1308 14110,1327 14101,1347 14092,1364 14079,1383 14063,1403 14045,1418 14026,1434 14005,1444 13984,1453 13962,1457 13938,1462 13924,1459 13924,1459 12530,1459 12530,1908 14233,1908 14233,1908 14237,1908 14261,1912 14284,1917 14308,1926 14329,1936 14347,1947 14361,1960 14374,1974 14387,1988 14398,2004 14406,2021 14415,2039 14419,2056 14423,2074 14426,2092 14426,2112 14426,2130 14421,2149 14416,2168 14410,2186 14400,2206 14387,2224 14372,2244 14352,2259 14333,2275 14315,2286 14291,2294 14269,2299 14246,2303 14233,2300 14233,2300 12333,2300"/>
 </g>
</svg>